# xmcd CD database file
#
# Track frame offsets:
#	150
#	13269
#	31073
#	44235
#	57292
#	68437
#	79882
#	94004
#	109779
#	127361
#	144222
#	168234
#	182678
#
# Disc length: 2728 seconds
#
# Revision: 0
# Processed by: cddbd v1.5.2PL0 Copyright (c) Steve Scherf et al.
# Submitted via: CDex 1.70beta2
#
DISCID=af0aa60d
DTITLE=High Society - Fantasy
DYEAR=2009
DGENRE=Jazz
TTITLE0=Matthieu Bore - just a gigolo
TTITLE1=Ute Lemper - i am a vamp!
TTITLE2=Patrick and Eugene - old times
TTITLE3=Paris Combo - si mon amour
TTITLE4=Roberto Alagna feat. Jean Reno - i love paris
TTITLE5=The Johnston Borthers - hernando's hideaway
TTITLE6=The Puppini Sisters - libertango
TTITLE7=Puccio Roelans - caravan
TTITLE8=Amele les crayon - ta p'tite flamme
TTITLE9=M. A. Numminen - kangastus
TTITLE10=Helen Merrill - pierre
TTITLE11=Frederico Aubele - pena
TTITLE12=Tragic Roundabout - camer herders
EXTD=YEAR: 2009
EXTT0=
EXTT1=
EXTT2=
EXTT3=
EXTT4=
EXTT5=
EXTT6=
EXTT7=
EXTT8=
EXTT9=
EXTT10=
EXTT11=
EXTT12=
PLAYORDER=
